<?xml version="1.0" standalone="no"?>
<!DOCTYPE svg PUBLIC "-//W3C//DTD SVG 20010904//EN"
 "http://www.w3.org/TR/2001/REC-SVG-20010904/DTD/svg10.dtd">
<svg version="1.0" xmlns="http://www.w3.org/2000/svg"
 width="37.000000pt" height="51.000000pt" viewBox="0 0 37.000000 51.000000"
 preserveAspectRatio="xMidYMid meet">

<g transform="translate(0.000000,51.000000) scale(0.100000,-0.100000)"
fill="#000000" stroke="none">
<path d="M256 464 c-7 -19 10 -44 30 -44 16 0 33 30 27 48 -7 18 -50 15 -57
-4z"/>
<path d="M175 430 c-11 -17 6 -50 25 -50 19 0 36 33 25 50 -3 5 -15 10 -25 10
-10 0 -22 -5 -25 -10z"/>
<path d="M244 399 c-10 -17 8 -28 38 -22 42 8 45 33 3 33 -18 0 -37 -5 -41
-11z"/>
<path d="M84 386 c-10 -26 4 -48 28 -44 33 4 33 52 0 56 -13 2 -25 -3 -28 -12z"/>
<path d="M156 351 c-3 -5 1 -12 10 -15 27 -10 52 -7 58 9 4 12 -3 15 -29 15
-18 0 -36 -4 -39 -9z"/>
<path d="M240 244 c0 -71 2 -82 19 -87 40 -10 51 9 51 87 l0 74 -35 4 -35 4 0
-82z"/>
<path d="M72 303 c6 -30 67 -21 68 10 0 4 -16 7 -36 7 -28 0 -35 -4 -32 -17z"/>
<path d="M157 273 c-4 -3 -7 -37 -7 -73 0 -74 13 -97 50 -85 18 6 20 15 20 86
l0 79 -28 0 c-16 0 -32 -3 -35 -7z"/>
<path d="M81 231 c-6 -4 -14 -35 -17 -69 -7 -66 3 -92 36 -92 31 0 38 22 33
92 -4 52 -9 67 -23 71 -10 2 -23 1 -29 -2z"/>
</g>
</svg>
